<?xml version="1.0" standalone="no"?>
<!DOCTYPE svg PUBLIC "-//W3C//DTD SVG 20010904//EN"
 "http://www.w3.org/TR/2001/REC-SVG-20010904/DTD/svg10.dtd">
<svg version="1.0" xmlns="http://www.w3.org/2000/svg"
 width="752.000000pt" height="752.000000pt" viewBox="0 0 752.000000 752.000000"
 preserveAspectRatio="xMidYMid meet">

<g transform="translate(0.000000,752.000000) scale(0.100000,-0.100000)"
fill="#000000" stroke="none">
<path d="M4785 5614 c-401 -75 -666 -346 -618 -630 18 -102 65 -186 151 -273
l74 -74 -27 -61 c-73 -164 -70 -154 -50 -176 10 -11 24 -20 32 -20 7 0 83 29
167 65 l154 65 63 -15 c89 -22 316 -31 420 -15 415 60 704 344 650 637 -41
223 -243 402 -540 480 -124 32 -353 41 -476 17z m480 -118 c195 -59 345 -167
407 -294 29 -59 33 -76 33 -152 0 -76 -3 -93 -33 -152 -129 -262 -561 -399
-948 -302 l-64 16 -96 -41 c-52 -22 -99 -41 -104 -41 -5 0 4 28 19 62 16 34
26 69 24 79 -3 10 -22 30 -44 44 -58 41 -134 126 -165 186 -25 48 -29 65 -29
144 0 82 3 96 33 157 65 132 231 250 417 297 121 30 118 30 295 27 145 -3 176
-6 255 -30z"/>
<path d="M4587 5129 c-9 -5 -24 -24 -33 -40 -32 -62 13 -129 86 -129 30 0 44
6 64 31 35 41 34 83 -3 120 -31 31 -79 38 -114 18z"/>
<path d="M4925 5118 c-15 -14 -28 -38 -31 -59 -5 -28 -1 -41 21 -67 34 -41 89
-44 132 -8 61 53 21 156 -62 156 -21 0 -44 -9 -60 -22z"/>
<path d="M5269 5111 c-37 -37 -38 -79 -3 -120 64 -76 192 -2 154 89 -27 66
-101 81 -151 31z"/>
<path d="M2875 5599 c-314 -46 -502 -186 -561 -419 -21 -83 -14 -273 15 -409
l20 -94 -24 -31 c-44 -58 -55 -99 -55 -205 0 -55 5 -112 11 -128 19 -51 62
-104 104 -129 33 -19 45 -33 54 -67 20 -64 95 -204 151 -278 131 -175 342
-322 491 -344 224 -33 592 284 709 612 17 48 28 64 51 74 36 14 76 60 100 114
14 31 19 65 19 148 0 115 -9 151 -52 202 l-25 30 19 90 c25 116 35 331 19 407
-27 129 -123 258 -241 325 -77 44 -193 81 -307 98 -107 16 -398 18 -498 4z
m396 -89 c127 -12 242 -40 326 -80 168 -78 256 -244 238 -450 -8 -93 -48 -294
-74 -375 l-19 -60 -1 52 c-3 161 -42 297 -101 354 -63 61 -124 59 -222 -8 -29
-20 -78 -48 -108 -62 -51 -24 -65 -26 -195 -26 -157 0 -179 6 -292 83 -72 49
-121 64 -167 51 -97 -27 -145 -131 -162 -350 l-8 -94 -13 45 c-25 79 -62 265
-73 359 -32 285 92 460 377 532 143 36 316 46 494 29z m-491 -659 c99 -64 170
-89 277 -97 166 -12 282 18 408 105 33 22 68 41 77 41 45 0 86 -105 95 -245
l6 -90 -24 21 c-45 40 -64 44 -206 44 -129 0 -141 -2 -178 -25 -34 -21 -52
-24 -120 -24 -68 0 -86 3 -120 24 -37 23 -49 25 -178 25 -141 0 -162 -4 -204
-43 l-23 -20 0 49 c1 62 24 194 40 225 19 37 41 59 60 59 9 0 49 -22 90 -49z
m-354 -423 c34 -107 43 -125 67 -136 24 -12 32 -11 51 1 21 14 24 13 48 -17
44 -55 80 -66 221 -66 136 0 167 7 211 48 43 41 66 98 66 170 0 59 1 62 25 62
24 0 25 -3 25 -62 1 -98 49 -179 123 -207 42 -16 271 -14 310 3 18 7 46 29 64
49 21 24 34 32 41 25 14 -14 59 -13 76 2 15 12 31 51 60 147 9 28 21 64 27 80
10 26 12 27 19 8 12 -29 12 -143 0 -187 -11 -37 -69 -98 -94 -98 -22 0 -42
-32 -65 -101 -28 -84 -101 -210 -171 -295 -110 -132 -288 -250 -394 -261 -100
-10 -251 73 -387 214 -119 122 -169 206 -241 405 -7 18 -22 31 -44 38 -64 21
-104 94 -104 191 0 55 10 109 19 109 4 0 25 -55 47 -122z m533 88 c48 -43 51
-137 6 -182 -23 -23 -31 -24 -149 -24 l-124 0 -26 31 c-30 35 -35 106 -12 148
24 44 52 51 172 49 93 -3 115 -6 133 -22z m600 0 c46 -42 46 -141 0 -187 -17
-17 -34 -19 -144 -19 -140 0 -155 6 -174 75 -15 54 12 128 52 145 12 5 72 9
133 7 94 -2 115 -5 133 -21z"/>
<path d="M2545 3525 c-328 -101 -540 -210 -632 -326 -58 -73 -117 -308 -167
-669 -42 -304 -41 -277 -6 -310 46 -43 257 -144 395 -189 321 -105 652 -148
1075 -138 383 10 641 52 930 152 119 42 298 130 349 173 l34 28 -17 140 c-45
362 -112 683 -162 775 -53 96 -197 194 -411 280 -145 58 -367 124 -388 115 -8
-3 -37 -37 -65 -75 -62 -85 -164 -180 -277 -258 l-84 -57 -32 19 c-112 65
-257 190 -322 278 -68 92 -73 97 -92 97 -10 -1 -67 -16 -128 -35z m115 -83 c0
-13 105 -128 171 -188 67 -60 262 -194 283 -194 17 0 144 79 219 137 75 57
198 180 223 222 11 19 26 31 39 31 11 0 83 -22 160 -48 l140 -47 3 -34 c4 -35
-20 -201 -38 -262 l-10 -36 -53 9 c-102 17 -199 -12 -256 -78 -19 -21 -59 -89
-89 -151 -30 -64 -60 -113 -68 -113 -7 0 -28 -13 -46 -29 -28 -25 -33 -36 -33
-76 0 -40 5 -51 33 -76 47 -43 102 -41 148 5 37 37 43 73 20 118 -13 24 -11
32 18 95 74 158 105 196 171 209 109 20 288 -54 331 -138 21 -40 15 -124 -16
-236 -21 -76 -25 -84 -57 -97 -65 -27 -79 -116 -26 -169 88 -88 227 15 169
126 -13 25 -12 39 15 144 33 134 36 202 10 260 -22 47 -79 106 -137 140 l-42
25 14 54 c8 29 21 97 29 151 8 53 16 99 19 101 2 3 37 -12 76 -33 84 -44 161
-110 184 -158 40 -84 94 -345 136 -661 25 -183 36 -160 -106 -230 -258 -128
-626 -209 -1009 -224 -559 -21 -1032 62 -1377 242 l-98 50 5 36 c29 217 39
286 61 410 30 174 68 331 94 381 11 21 40 56 65 77 50 43 183 119 192 109 3
-3 12 -47 19 -98 18 -123 56 -268 98 -376 l34 -87 -28 -30 c-108 -116 -81
-291 57 -372 40 -23 59 -28 118 -28 59 0 78 5 118 28 167 98 164 330 -5 422
-42 23 -64 29 -115 28 l-62 0 -31 86 c-43 119 -77 258 -92 374 -14 114 -23
102 102 146 157 55 220 71 220 53z m-50 -780 c111 -81 52 -262 -85 -262 -104
0 -174 111 -129 205 16 34 19 36 30 20 8 -11 11 -34 7 -65 -7 -58 15 -96 61
-108 71 -19 126 22 126 93 0 36 -5 48 -31 69 -17 14 -37 26 -44 26 -13 0 -35
29 -35 46 0 12 74 -5 100 -24z"/>
</g>
</svg>
